<svg xmlns:rdf="http://www.w3.org/1999/02/22-rdf-syntax-ns#" xmlns="http://www.w3.org/2000/svg" height="531" width="1.33e3" version="1.1" xmlns:cc="http://creativecommons.org/ns#" viewBox="0 0 1326.4571 531.28157" xmlns:dc="http://purl.org/dc/elements/1.1/">
 <defs>
  <marker id="h" refY="0.0" refX="0.0" overflow="visible" orient="auto">
   <path stroke-linejoin="round" d="m8.72 4.03l-10.9-4.01 10.9-4.02c-1.75 2.37-1.74 5.62 0 8.03z" fill-rule="evenodd" transform="scale(1.1) rotate(180) translate(1)" stroke="#fff" stroke-width=".625" fill="#fff"/>
  </marker>
  <marker id="g" refY="0.0" refX="0.0" overflow="visible" orient="auto">
   <path stroke-linejoin="round" d="m8.72 4.03l-10.9-4.01 10.9-4.02c-1.75 2.37-1.74 5.62 0 8.03z" fill-rule="evenodd" transform="scale(1.1) rotate(180) translate(1)" stroke="#fff" stroke-width=".625" fill="#fff"/>
  </marker>
  <marker id="f" refY="0.0" refX="0.0" overflow="visible" orient="auto">
   <path stroke-linejoin="round" d="m8.72 4.03l-10.9-4.01 10.9-4.02c-1.75 2.37-1.74 5.62 0 8.03z" fill-rule="evenodd" transform="scale(1.1) rotate(180) translate(1)" stroke="#fff" stroke-width=".625" fill="#fff"/>
  </marker>
  <marker id="e" refY="0.0" refX="0.0" overflow="visible" orient="auto">
   <path stroke-linejoin="round" d="m8.72 4.03l-10.9-4.01 10.9-4.02c-1.75 2.37-1.74 5.62 0 8.03z" fill-rule="evenodd" transform="scale(1.1) rotate(180) translate(1)" stroke="#fff" stroke-width=".625" fill="#fff"/>
  </marker>
 </defs>
 <g transform="translate(-137 -337)">
  <rect opacity="0" ry="54.3" height="187" width="333" y="266" x="294" stroke-width="5.6"/>
  <text style="word-spacing:0px;letter-spacing:0px" xml:space="preserve" font-size="40px" y="469.79492" x="518.39545" font-family="sans-serif" line-height="125%" fill="#000000"><tspan y="469.79492" x="518.39545"/></text>
  <flowRoot style="word-spacing:0px;letter-spacing:0px" xml:space="preserve" font-size="35px" transform="translate(83 35.6)" font-family="&apos;Source Sans Pro&apos;" line-height="125%" fill="#000000"><flowRegion><rect y="620" width="237" x="543" height="116"/></flowRegion><flowPara/></flowRoot>
  <rect stroke-linejoin="round" style="image-rendering:auto" ry="42.7" height="189" width="315" stroke="#fff" y="508" x="140" stroke-width="5.56" fill="#a6cee3"/>
  <text style="word-spacing:0px;letter-spacing:0px;text-anchor:middle;text-align:center" xml:space="preserve" font-size="40px" y="566.36212" x="297.08279" font-family="&apos;Source Sans Pro&apos;" line-height="125%" fill="#000000"><tspan y="566.36212" x="301.06717">Admin installs </tspan><tspan y="616.36212" x="301.06717">wrapper from </tspan><tspan y="666.36212" x="297.08279">Tool Shed</tspan></text>
  <text style="word-spacing:0px;letter-spacing:0px" xml:space="preserve" font-size="40px" y="242.36212" x="452.85709" font-family="sans-serif" line-height="125%" fill="#000000"><tspan y="242.36212" x="452.85709"/></text>
  <rect stroke-linejoin="round" style="image-rendering:auto" ry="33" height="146" width="546" stroke="#fff" y="344" x="530" stroke-width="5.55" fill="#f55"/>
  <text style="word-spacing:0px;letter-spacing:0px;text-anchor:middle;text-align:center" xml:space="preserve" font-size="40px" y="402.8494" x="803.40521" font-family="&apos;Source Sans Pro&apos;" line-height="125%" fill="#000000"><tspan y="402.8494" x="803.40521">Admin often must install</tspan><tspan y="452.8494" x="803.40521">tool and dependencies</tspan></text>
  <rect stroke-linejoin="round" style="image-rendering:auto" ry="32.4" height="144" width="544" stroke="#fff" y="717" x="530" stroke-width="5.55" fill="#a6cee3"/>
  <text style="word-spacing:0px;letter-spacing:0px;text-anchor:middle;text-align:center" xml:space="preserve" font-size="40px" y="777.72791" x="800.341" font-family="&apos;Source Sans Pro&apos;" line-height="125%" fill="#000000"><tspan y="777.72791" x="804.32538">Image pulled from Docker Hub </tspan><tspan y="827.72791" x="800.341">on first run of tool</tspan></text>
  <text style="word-spacing:0px;letter-spacing:0px;text-anchor:middle;text-align:center" xml:space="preserve" font-size="30px" y="663.72241" x="799.61981" font-family="&apos;Source Sans Pro&apos;" line-height="125%" fill="#ffffff"><tspan y="663.72241" x="799.61981">With a Docker-enabled runner</tspan><tspan y="701.22241" x="799.61981">and Dockerised tool</tspan></text>
  <text style="word-spacing:0px;letter-spacing:0px" xml:space="preserve" font-size="30px" y="520.21564" x="664.34564" font-family="&apos;Source Sans Pro&apos;" line-height="125%" fill="#ffffff"><tspan y="520.21564" x="664.34564">Normal Galaxy case</tspan></text>
  <rect stroke-linejoin="round" style="image-rendering:auto" ry="42.7" height="189" width="315" stroke="#fff" y="508" x="1.15e3" stroke-width="5.56" fill="#a6cee3"/>
  <text style="word-spacing:0px;letter-spacing:0px;text-anchor:middle;text-align:center" xml:space="preserve" font-size="40px" y="591.51324" x="1302.502" font-family="&apos;Source Sans Pro&apos;" line-height="125%" fill="#000000"><tspan y="591.51324" x="1302.502">Tool ready</tspan><tspan y="641.51324" x="1302.502">to run</tspan></text>
  <g stroke="#fff" fill="none">
   <path stroke-width="3.89" marker-end="url(#e)" d="m297 505c-2-97 227-91 227-91"/>
   <path stroke-width="3.89" marker-end="url(#f)" d="m297 699c-1.34 97.5 227 91.8 227 91.8"/>
   <path stroke-width="4.01" marker-end="url(#g)" d="m1.08e3 417c62.2 7 123-14.4 224 87.1"/>
   <path stroke-width="4.01" marker-end="url(#h)" d="m1.08e3 790c62.2-7 123 14.4 224-87.1"/>
  </g>
 </g>
</svg>
